<?xml version="1.0" standalone="no"?>
<!DOCTYPE svg PUBLIC "-//W3C//DTD SVG 20010904//EN"
 "http://www.w3.org/TR/2001/REC-SVG-20010904/DTD/svg10.dtd">
<svg version="1.0" xmlns="http://www.w3.org/2000/svg"
 width="1402.000000pt" height="290.000000pt" viewBox="0 0 1402.000000 290.000000"
 preserveAspectRatio="xMidYMid meet">
<metadata>
Created by potrace 1.16, written by Peter Selinger 2001-2019
</metadata>
<g transform="translate(0.000000,290.000000) scale(0.100000,-0.100000)"
fill="#000000" stroke="none">
<path d="M12 2892 c-10 -7 -12 -140 -10 -633 l3 -624 125 0 125 0 3 173 2 172
163 0 c108 0 180 5 216 15 159 42 266 147 307 300 16 59 18 211 3 274 -37 164
-181 292 -359 320 -76 13 -559 14 -578 3z m549 -257 c52 -19 96 -58 115 -102
22 -51 18 -151 -8 -203 -43 -84 -114 -110 -298 -110 l-110 0 0 215 0 215 129
0 c90 0 142 -5 172 -15z"/>
<path d="M4057 2893 c-4 -3 -7 -289 -7 -635 l0 -628 428 2 427 3 0 115 0 115
-297 3 -298 2 0 140 0 140 253 2 252 3 0 115 0 115 -252 3 -253 2 0 130 0 130
274 0 c151 0 281 3 290 6 24 9 24 229 0 238 -21 8 -809 8 -817 -1z"/>
<path d="M7740 2791 c-12 -24 -14 -1129 -2 -1149 7 -9 39 -12 128 -10 l119 3
3 579 c2 457 0 581 -10 588 -7 4 -61 8 -120 8 -96 0 -108 -2 -118 -19z"/>
<path d="M8154 2786 c-3 -8 -4 -23 -2 -33 3 -17 46 -18 916 -23 797 -4 914 -7
922 -20 6 -9 10 -214 10 -507 0 -434 -2 -493 -16 -507 -14 -14 -111 -16 -920
-16 l-905 0 3 -32 3 -33 900 -3 c495 -1 909 0 921 2 25 7 57 34 72 63 17 31
17 1025 0 1056 -14 27 -28 41 -55 55 -16 9 -262 12 -933 12 -784 0 -911 -2
-916 -14z"/>
<path d="M7423 2770 c-41 -25 -63 -68 -63 -122 0 -87 55 -138 147 -138 99 0
153 51 153 146 0 57 -22 94 -70 119 -42 22 -128 19 -167 -5z"/>
<path d="M10267 2693 c-4 -3 -7 -17 -7 -30 l0 -23 531 0 530 0 -3 28 -3 27
-521 3 c-286 1 -524 -1 -527 -5z"/>
<path d="M8263 2614 c-3 -9 -2 -24 4 -33 5 -8 116 -82 245 -164 l235 -148
-106 -102 c-285 -274 -341 -331 -341 -353 0 -34 28 -38 68 -8 19 15 126 114
238 221 111 106 206 193 210 193 3 0 53 -29 110 -65 137 -86 151 -86 279 -5
52 32 104 64 115 70 22 12 31 4 376 -303 116 -104 160 -138 177 -135 50 7 25
42 -138 191 -88 80 -198 181 -244 224 l-84 79 159 99 c191 118 310 200 316
217 8 21 -2 38 -21 38 -29 0 -66 -22 -434 -252 -192 -120 -353 -218 -357 -218
-5 0 -176 106 -380 235 -227 144 -381 235 -396 235 -14 0 -27 -7 -31 -16z"/>
<path d="M2434 2490 c-53 -11 -133 -51 -159 -80 l-20 -22 -5 48 -5 49 -115 0
-115 0 0 -425 0 -425 120 0 120 0 5 235 c5 220 7 238 29 282 36 75 94 108 190
109 31 1 59 6 63 13 13 19 9 201 -4 214 -13 13 -43 14 -104 2z"/>
<path d="M2901 2489 c-279 -55 -429 -371 -301 -635 52 -106 168 -193 299 -224
78 -18 235 -16 307 5 91 26 184 89 184 124 0 18 -109 131 -126 131 -6 0 -39
-15 -74 -32 -55 -29 -72 -33 -139 -33 -59 0 -87 6 -124 24 -47 23 -107 89
-107 118 0 11 56 13 308 13 226 0 311 3 320 12 28 28 8 178 -37 275 -82 173
-292 265 -510 222z m227 -222 c37 -24 82 -88 82 -117 0 -6 -68 -10 -200 -10
-110 0 -200 2 -200 5 0 19 32 74 56 96 53 48 84 60 155 56 52 -2 75 -8 107
-30z"/>
<path d="M5383 2490 c-48 -10 -94 -32 -140 -66 l-32 -24 -3 42 -3 43 -115 0
-115 0 -3 -427 -2 -428 124 0 124 0 4 253 c3 247 3 253 28 296 31 54 67 82
117 90 47 9 111 -4 136 -27 49 -44 52 -62 57 -342 l5 -265 125 0 125 0 5 255
c4 223 7 260 24 293 28 57 69 81 146 85 60 4 69 2 99 -24 61 -51 65 -71 69
-356 l4 -258 125 0 124 0 -3 313 -3 312 -33 67 c-49 100 -119 149 -241 170
-123 21 -282 -23 -352 -98 l-22 -23 -48 43 c-27 24 -70 52 -97 61 -57 20 -171
27 -229 15z"/>
<path d="M6735 2486 c-119 -23 -225 -71 -225 -101 0 -19 66 -151 79 -160 6 -3
32 5 58 18 69 35 146 50 218 45 78 -7 120 -31 145 -83 36 -75 42 -73 -159 -77
l-178 -3 -69 -35 c-55 -28 -74 -45 -99 -84 -27 -44 -30 -58 -30 -130 0 -70 4
-87 27 -127 61 -103 214 -157 368 -129 73 13 113 31 153 68 l27 26 0 -42 0
-43 118 3 117 3 0 285 c0 241 -3 294 -17 341 -33 106 -111 181 -223 215 -71
21 -226 26 -310 10z m295 -551 c0 -93 -105 -162 -232 -153 -53 4 -65 9 -89 36
-33 37 -37 76 -11 109 31 41 78 52 210 53 l122 0 0 -45z"/>
<path d="M1034 2476 c-3 -8 -4 -146 -2 -307 3 -278 5 -297 26 -351 28 -69 83
-128 154 -165 45 -23 68 -28 155 -31 119 -5 178 10 249 64 l44 34 0 -45 0 -46
118 3 117 3 0 425 0 425 -125 0 -125 0 -5 -261 -5 -261 -28 -42 c-34 -50 -92
-80 -157 -81 -63 0 -110 27 -137 80 -22 42 -23 55 -23 295 0 182 -3 254 -12
263 -18 18 -237 17 -244 -2z"/>
<path d="M7385 2388 c-3 -7 -4 -180 -3 -383 l3 -370 125 0 125 0 0 380 0 380
-123 3 c-92 2 -124 -1 -127 -10z"/>
<path d="M10264 2375 c-4 -8 -4 -22 0 -30 5 -13 55 -15 398 -13 l393 3 0 25 0
25 -393 3 c-343 2 -393 0 -398 -13z"/>
<path d="M10262 2053 l3 -28 245 0 245 0 0 25 0 25 -248 3 -248 2 3 -27z"/>
<path d="M340 1023 c-57 -60 -91 -121 -141 -255 -15 -42 -33 -85 -38 -95 -15
-24 -57 -222 -71 -326 -10 -75 -10 -88 5 -111 17 -25 39 -34 49 -18 2 4 9 50
15 102 6 52 22 138 34 190 l23 95 40 11 c21 6 66 18 99 25 49 11 61 18 63 36
2 14 -5 27 -21 38 -20 13 -32 14 -75 3 -29 -6 -55 -8 -59 -5 -3 4 15 51 42
105 32 66 62 111 94 141 l46 43 5 -43 c4 -36 9 -45 28 -47 18 -3 26 5 42 43
26 60 25 77 -3 103 -17 16 -36 22 -72 22 -47 0 -52 -3 -105 -57z"/>
<path d="M5285 1029 c-59 -55 -99 -120 -136 -220 -16 -46 -37 -90 -46 -96 -9
-7 -34 -13 -55 -13 -30 0 -38 -4 -38 -18 0 -22 19 -42 40 -42 41 -1 43 -12 26
-126 -25 -169 -33 -283 -22 -294 15 -15 42 -12 56 5 8 9 19 75 27 153 14 143
26 229 35 237 3 3 37 9 76 14 81 10 92 15 92 40 0 29 -21 40 -88 43 l-61 3 50
105 c52 108 84 151 132 176 22 12 27 12 27 1 0 -7 -7 -22 -15 -33 -38 -50 -1
-83 45 -39 34 33 48 85 31 121 -9 22 -17 24 -71 24 -57 0 -63 -2 -105 -41z"/>
<path d="M11159 1003 c-90 -202 -143 -354 -170 -494 -6 -35 -16 -69 -21 -75
-13 -18 2 -44 29 -50 39 -10 127 2 178 25 61 27 119 78 164 143 29 43 36 62
36 101 0 42 -4 52 -30 73 -57 46 -123 26 -218 -64 l-38 -37 26 75 c15 41 53
133 86 204 62 138 65 166 13 166 -21 0 -29 -10 -55 -67z m131 -340 c0 -58 -93
-167 -173 -203 -42 -19 -42 -19 -45 1 -5 29 30 79 108 153 69 65 110 83 110
49z"/>
<path d="M6796 1038 c-7 -13 -36 -93 -64 -178 -113 -344 -134 -429 -112 -455
7 -8 23 -15 36 -15 20 0 24 8 34 58 21 103 37 155 98 327 33 94 66 184 73 201
17 44 5 84 -26 84 -15 0 -30 -9 -39 -22z"/>
<path d="M8819 1024 c-7 -9 -38 -80 -69 -158 l-56 -141 -65 -5 c-76 -6 -113
-24 -162 -79 -52 -58 -79 -117 -85 -187 -6 -83 6 -104 61 -104 48 0 72 13 140
79 l47 45 0 -44 c1 -52 18 -80 49 -80 19 0 21 5 21 63 0 69 20 166 44 212 9
17 16 38 16 48 0 22 59 176 94 246 32 63 32 114 0 119 -11 2 -27 -4 -35 -14z
m-165 -386 c-37 -63 -91 -133 -130 -167 -79 -69 -96 -50 -42 51 40 76 99 128
145 128 25 0 32 -4 27 -12z"/>
<path d="M13459 772 c-24 -16 -59 -45 -76 -66 -45 -50 -45 -110 -3 -191 37
-70 37 -83 3 -96 -22 -8 -35 -7 -60 6 -18 10 -39 15 -48 11 -14 -5 -14 -8 0
-36 21 -40 43 -50 114 -50 109 0 126 47 61 171 -48 93 -40 124 50 178 46 27
47 27 42 -12 -4 -35 20 -71 42 -64 18 6 45 69 46 108 0 48 -24 69 -81 69 -32
0 -58 -8 -90 -28z"/>
<path d="M12057 766 c-77 -28 -147 -79 -167 -121 -40 -82 -15 -142 79 -189
l46 -24 -44 -12 c-32 -8 -51 -9 -68 -1 -34 16 -43 14 -43 -9 0 -39 35 -60 98
-60 75 0 126 25 130 63 5 42 -21 73 -88 107 -33 17 -60 35 -60 41 0 46 108
139 162 139 23 0 28 -4 28 -24 0 -13 7 -29 15 -36 23 -19 55 14 55 55 0 67
-65 100 -143 71z"/>
<path d="M13877 766 c-77 -28 -147 -79 -167 -121 -40 -82 -15 -142 79 -189
l46 -24 -44 -12 c-32 -8 -51 -9 -68 -1 -34 16 -43 14 -43 -9 0 -39 35 -60 98
-60 75 0 126 25 130 63 5 42 -21 73 -88 107 -33 17 -60 35 -60 41 0 46 108
139 162 139 23 0 28 -4 28 -24 0 -13 7 -29 15 -36 23 -19 55 14 55 55 0 67
-65 100 -143 71z"/>
<path d="M605 756 c-44 -19 -123 -108 -151 -170 -13 -29 -27 -78 -30 -107 -11
-112 71 -163 170 -105 100 59 166 168 166 278 0 64 -1 68 -33 92 -37 29 -76
32 -122 12z m83 -94 c9 -59 -67 -193 -130 -232 -65 -39 -77 12 -26 115 44 92
93 147 127 143 18 -2 27 -10 29 -26z"/>
<path d="M3205 747 c-9 -35 0 -246 13 -290 5 -22 20 -49 32 -62 l21 -22 -31
-53 c-49 -83 -78 -117 -117 -135 -32 -15 -39 -16 -73 -2 -28 11 -41 12 -49 4
-34 -34 20 -77 98 -77 48 0 64 5 99 31 51 37 118 137 176 261 24 51 61 131 83
178 22 47 43 95 47 108 14 43 -13 79 -49 65 -17 -6 -55 -76 -75 -138 -7 -22
-28 -71 -46 -109 l-33 -69 -12 29 c-7 16 -15 90 -18 164 l-6 135 -27 3 c-22 3
-29 -2 -33 -21z"/>
<path d="M3715 756 c-44 -19 -123 -108 -151 -170 -13 -29 -27 -78 -30 -107
-11 -112 71 -163 170 -105 100 59 166 168 166 278 0 64 -1 68 -33 92 -37 29
-76 32 -122 12z m83 -94 c9 -59 -67 -193 -130 -232 -65 -39 -77 12 -26 115 44
92 93 147 127 143 18 -2 27 -10 29 -26z"/>
<path d="M5842 703 c-38 -110 -62 -205 -62 -245 0 -36 21 -69 43 -67 7 0 44
35 82 78 66 73 135 135 141 128 2 -2 -10 -38 -27 -81 -29 -74 -29 -79 -13 -97
9 -10 24 -19 32 -19 8 0 52 36 98 80 46 44 88 80 92 80 5 0 12 -29 15 -65 6
-86 24 -107 86 -103 38 3 47 7 49 25 2 17 -3 23 -27 28 l-31 7 0 72 c0 87 -16
116 -63 116 -29 0 -56 -13 -112 -54 -20 -15 -20 -14 -17 25 5 45 -17 79 -50
79 -27 0 -86 -32 -146 -79 l-52 -41 22 52 c12 29 22 73 23 98 0 43 -1 45 -30
48 -29 3 -31 0 -53 -65z"/>
<path d="M7581 712 c-76 -78 -122 -166 -129 -247 -4 -57 -2 -64 19 -79 27 -19
75 -20 105 -3 12 7 43 36 69 65 l48 53 21 -53 c19 -47 25 -53 52 -56 43 -4 90
35 80 66 -6 17 -15 22 -42 22 -31 0 -34 3 -34 28 0 16 5 54 11 86 13 71 5 107
-31 146 -23 24 -36 30 -70 30 -38 0 -47 -6 -99 -58z m125 -37 c10 -26 -4 -61
-50 -121 -52 -69 -111 -118 -131 -110 -38 14 113 246 160 246 9 0 18 -7 21
-15z"/>
<path d="M9645 751 c-91 -57 -159 -194 -148 -301 6 -54 16 -75 48 -96 39 -25
86 -11 148 46 90 82 137 214 107 304 -20 62 -95 85 -155 47z m83 -100 c6 -57
-6 -96 -48 -158 -42 -63 -71 -86 -95 -77 -22 9 -19 53 11 132 46 126 124 187
132 103z"/>
<path d="M10364 694 c-35 -75 -84 -244 -84 -289 0 -25 29 -55 54 -55 18 0 29
22 46 86 5 23 28 62 51 88 51 57 163 126 207 126 36 0 40 14 16 48 -29 42
-102 24 -192 -47 l-51 -40 25 56 c31 70 29 97 -9 101 -26 3 -30 -2 -63 -74z"/>
<path d="M13048 737 c-117 -89 -155 -272 -73 -354 28 -28 40 -33 82 -33 76 0
163 69 132 106 -15 18 -33 18 -50 -2 -24 -29 -66 -45 -94 -34 -35 13 -48 46
-37 95 l8 40 62 -3 c72 -4 118 17 151 72 28 45 26 78 -5 115 -23 28 -32 31
-79 31 -45 0 -60 -5 -97 -33z"/>
<path d="M1510 740 c0 -12 6 -31 14 -43 12 -19 12 -34 1 -102 -27 -159 -17
-205 47 -205 23 0 40 10 70 43 39 42 39 41 -31 -98 -76 -151 -90 -193 -72
-231 12 -28 49 -32 57 -7 12 38 99 241 127 298 16 33 38 82 48 110 10 27 29
82 43 120 32 88 32 91 -3 103 -36 13 -44 7 -70 -48 -11 -25 -49 -81 -83 -125
-68 -87 -77 -86 -59 11 25 133 8 194 -55 194 -28 0 -34 -4 -34 -20z"/>
<path d="M2024 741 c-53 -32 -104 -119 -130 -221 -13 -53 -13 -62 1 -89 20
-40 49 -54 100 -49 87 10 195 119 195 197 0 26 7 41 31 60 20 18 28 31 24 43
-8 20 -43 30 -66 17 -31 -16 -45 -10 -54 24 -8 26 -16 33 -40 35 -17 1 -44 -6
-61 -17z m41 -112 c4 -5 18 -14 31 -19 33 -13 30 -29 -12 -83 -54 -69 -134
-112 -134 -72 0 25 41 119 66 153 26 34 38 39 49 21z"/>
<path d="M2357 728 c-36 -47 -67 -147 -67 -217 0 -49 4 -65 26 -90 22 -27 33
-31 72 -31 28 0 58 7 74 18 85 56 193 289 147 317 -5 4 -21 4 -34 1 -20 -5
-28 -18 -41 -64 -21 -74 -54 -131 -99 -171 -39 -34 -62 -39 -71 -16 -8 19 30
144 57 189 28 48 23 90 -13 94 -20 2 -32 -5 -51 -30z"/>
<path d="M4235 752 c-6 -4 -36 -51 -68 -104 -31 -53 -69 -110 -83 -128 -27
-32 -84 -67 -84 -52 0 19 50 155 71 192 19 34 21 43 11 65 -18 38 -51 30 -79
-20 -34 -60 -64 -163 -66 -229 -1 -52 2 -61 25 -81 34 -29 55 -24 112 26 24
22 47 39 50 39 3 0 6 -17 6 -38 0 -46 24 -82 54 -82 38 0 51 24 30 54 -25 40
-14 105 39 230 36 84 45 112 36 122 -12 15 -38 18 -54 6z"/>
<path d="M6830 740 c0 -12 6 -31 14 -43 12 -19 12 -34 1 -102 -27 -159 -17
-205 47 -205 23 0 40 10 70 43 39 42 39 41 -31 -98 -76 -151 -90 -193 -72
-231 12 -28 49 -32 57 -7 12 38 99 241 127 298 16 33 38 82 48 110 10 27 29
82 43 120 32 88 32 91 -3 103 -36 13 -44 7 -70 -48 -11 -25 -49 -81 -83 -125
-68 -87 -77 -86 -59 11 25 133 8 194 -55 194 -28 0 -34 -4 -34 -20z"/>
<path d="M9120 740 c0 -12 6 -31 14 -43 12 -19 12 -34 1 -102 -27 -159 -17
-205 47 -205 23 0 40 10 70 43 39 42 39 41 -31 -98 -76 -151 -90 -193 -72
-231 12 -28 49 -32 57 -7 12 38 99 241 127 298 16 33 38 82 48 110 10 27 29
82 43 120 32 88 32 91 -3 103 -36 13 -44 7 -70 -48 -11 -25 -49 -81 -83 -125
-68 -87 -77 -86 -59 11 25 133 8 194 -55 194 -28 0 -34 -4 -34 -20z"/>
<path d="M11745 752 c-6 -4 -36 -51 -68 -104 -31 -53 -69 -110 -83 -128 -27
-32 -84 -67 -84 -52 0 19 50 155 71 192 19 34 21 43 11 65 -18 38 -51 30 -79
-20 -34 -60 -64 -163 -66 -229 -1 -52 2 -61 25 -81 34 -29 55 -24 112 26 24
22 47 39 50 39 3 0 6 -17 6 -38 0 -46 24 -82 54 -82 38 0 51 24 30 54 -25 40
-14 105 39 230 36 84 45 112 36 122 -12 15 -38 18 -54 6z"/>
<path d="M5489 727 c-41 -27 -98 -102 -132 -171 -57 -115 -43 -176 39 -176 46
0 78 15 128 59 l28 26 17 -25 c33 -50 49 -60 100 -60 43 0 52 4 70 29 41 57
13 86 -45 50 -28 -17 -37 -19 -49 -9 -19 16 -19 71 -1 114 23 54 -6 155 -50
175 -37 17 -67 13 -105 -12z m87 -62 c11 -28 -7 -66 -52 -115 -49 -53 -121
-106 -130 -97 -19 18 130 227 162 227 8 0 17 -7 20 -15z"/>
<path d="M8004 733 c-12 -40 -69 -179 -80 -198 -7 -11 -16 -37 -19 -58 -6 -32
-4 -42 16 -63 30 -33 40 -31 77 15 30 38 189 151 211 151 7 0 11 -29 11 -74 0
-84 22 -126 66 -126 30 0 41 24 23 47 -10 11 -14 45 -14 104 -1 79 -3 91 -25
114 -13 14 -35 25 -49 25 -31 0 -92 -31 -140 -71 -19 -16 -37 -27 -39 -25 -2
2 6 22 17 45 25 48 26 79 5 109 -18 26 -52 29 -60 5z"/>
<path d="M9945 680 c-40 -80 -65 -166 -65 -225 0 -33 6 -47 29 -69 25 -24 35
-27 63 -22 18 4 51 20 73 37 l39 30 13 -37 c19 -53 32 -65 67 -62 39 4 46 37
17 74 -29 36 -26 78 9 164 41 100 38 170 -7 170 -24 0 -53 -39 -53 -72 0 -75
-97 -218 -147 -218 -24 0 -25 2 -19 41 4 23 23 80 42 127 29 70 34 90 25 109
-20 44 -48 29 -86 -47z"/>
<path d="M12534 733 c-12 -40 -69 -179 -80 -198 -7 -11 -16 -37 -19 -58 -6
-32 -4 -42 16 -63 30 -33 40 -31 77 15 30 38 189 151 211 151 7 0 11 -29 11
-74 0 -84 22 -126 66 -126 30 0 41 24 23 47 -10 11 -14 45 -14 104 -1 79 -3
91 -25 114 -13 14 -35 25 -49 25 -31 0 -92 -31 -140 -71 -19 -16 -37 -27 -39
-25 -2 2 6 22 17 45 25 48 26 79 5 109 -18 26 -52 29 -60 5z"/>
<path d="M1075 728 c-11 -6 -37 -24 -57 -40 l-37 -29 -3 33 c-3 29 -7 33 -36
36 -62 6 -99 -58 -46 -78 19 -8 24 -15 19 -28 -4 -9 -18 -48 -31 -86 -13 -38
-29 -74 -35 -82 -5 -7 -9 -28 -7 -46 2 -27 8 -34 29 -36 24 -3 30 5 77 100 63
129 96 163 160 163 39 0 48 4 61 27 23 40 3 78 -41 78 -18 0 -42 -6 -53 -12z"/>
<path d="M4595 728 c-11 -6 -37 -24 -57 -40 l-37 -29 -3 33 c-3 29 -7 33 -36
36 -62 6 -99 -58 -46 -78 19 -8 24 -15 19 -28 -4 -9 -18 -48 -31 -86 -13 -38
-29 -74 -35 -82 -5 -7 -9 -28 -7 -46 2 -27 8 -34 29 -36 24 -3 30 5 77 100 63
129 96 163 160 163 39 0 48 4 61 27 23 40 3 78 -41 78 -18 0 -42 -6 -53 -12z"/>
<path d="M12261 569 c-55 -137 -60 -179 -21 -179 26 0 41 25 90 148 37 93 40
107 30 133 -24 57 -43 37 -99 -102z"/>
<path d="M6483 668 c-13 -16 -70 -191 -78 -239 -8 -43 8 -79 34 -79 15 0 28
28 65 141 45 133 47 141 32 165 -18 26 -38 31 -53 12z"/>
<path d="M2697 463 c-3 -10 -8 -33 -12 -51 -4 -18 -27 -56 -51 -84 -24 -29
-43 -57 -41 -63 2 -5 15 -11 29 -13 31 -4 90 43 107 86 18 43 10 136 -11 140
-9 2 -19 -5 -21 -15z"/>
</g>
</svg>
